<?xml version="1.0" encoding="utf-8"?>
<!-- Generator: Adobe Illustrator 19.2.0, SVG Export Plug-In . SVG Version: 6.00 Build 0)  -->
<svg version="1.1" id="Layer_1" xmlns="http://www.w3.org/2000/svg" xmlns:xlink="http://www.w3.org/1999/xlink" x="0px" y="0px"
	 viewBox="0 0 119.2 119.2" style="enable-background:new 0 0 119.2 119.2;" xml:space="preserve">
<style type="text/css">
	.st0{fill:#FFFFFF;}
</style>
<g>
	<polygon class="st0" points="85.4,54.8 81.8,55.1 77.9,57.8 77.9,61.3 85.4,61.3 92.9,61.3 92.9,57.8 89.1,55.1 	"/>
	<polygon class="st0" points="52.8,51.6 52.8,46 50,43.5 28.4,43.5 28.4,55 49,55 	"/>
	<polygon class="st0" points="28.4,63.4 28.4,75.6 52.5,75.6 55.3,73.2 55.3,66.9 51.4,63.4 	"/>
	<path class="st0" d="M0,0v119.2h119.2V0H0z M74.6,39.2h21.6v4.6H74.6V39.2z M65.1,76.7L57,84H18.6V35.1h36l8,7.3V54l-4.5,3.8l7,6.6
		V76.7z M100.5,67.9H85.4h-7.6v7.9h9.3h4.1h9.2V84h-9.2h-4.1h-7.1v0h-9.8v0h0v-9.8h0v-6.4h0v-12l7.8-6.9l7.3-0.8l7.3,0.8l7.8,6.9
		V67.9z"/>
</g>
</svg>
