<?xml version="1.0" encoding="utf-8"?>
<!-- Generator: Adobe Illustrator 19.2.0, SVG Export Plug-In . SVG Version: 6.00 Build 0)  -->
<svg version="1.1" id="Layer_1" xmlns="http://www.w3.org/2000/svg" xmlns:xlink="http://www.w3.org/1999/xlink" x="0px" y="0px"
	 viewBox="0 0 213.3 153.6" style="enable-background:new 0 0 213.3 153.6;" xml:space="preserve">
<style type="text/css">
	.st0{fill:#FFFFFF;}
	.st1{fill:none;stroke:#FFFFFF;stroke-width:2;stroke-miterlimit:10;}
</style>
<g>
	<rect x="25.8" y="73.8" class="st0" width="14.2" height="14.2"/>
	<rect x="99.6" y="0" class="st0" width="14.2" height="14.2"/>
	<rect class="st0" width="14.2" height="14.2"/>
	<rect x="173.2" y="73.8" class="st0" width="14.2" height="14.2"/>
	<rect x="199.2" class="st0" width="14.2" height="14.2"/>
	<line class="st1" x1="7.1" y1="7.1" x2="206.2" y2="7.1"/>
	<path class="st1" d="M180.5,80.9c0-40.8-33.1-73.8-73.8-73.8S32.8,40.1,32.8,80.9"/>
	<polygon class="st0" points="113,22.4 109.2,22.4 109.2,92.7 114.7,92.7 114.7,106.8 98.6,106.8 98.6,92.7 104.1,92.7 104.1,22.4 
		100.3,22.4 71.1,82.1 91.6,135.2 106.7,135.2 121.7,135.2 142.2,82.1 	"/>
	<rect x="85.7" y="141.2" class="st0" width="41.9" height="12.4"/>
</g>
</svg>
