<?xml version="1.0" encoding="utf-8"?>
<!-- Generator: Adobe Illustrator 19.2.0, SVG Export Plug-In . SVG Version: 6.00 Build 0)  -->
<svg version="1.1" id="Layer_1" xmlns="http://www.w3.org/2000/svg" xmlns:xlink="http://www.w3.org/1999/xlink" x="0px" y="0px"
	 viewBox="0 0 119.2 119.2" style="enable-background:new 0 0 119.2 119.2;" xml:space="preserve">
<style type="text/css">
	.st0{fill:#FFFFFF;}
</style>
<g>
	<rect x="49.1" y="49.2" class="st0" width="20.9" height="20.9"/>
	<rect x="78.7" y="25.6" class="st0" width="13.6" height="13.6"/>
	<path class="st0" d="M0,0v119.2h119.2V0H0z M97.9,98.7H21.3V49.2h20.3v25v3.5h3.5h29h3.5v-3.5v-25h20.3V98.7z M45.1,74.2v-29h29v29
		H45.1z M97.9,45.2H77.6v-3.5h-3.5h-29h-3.5v3.5H21.3V20.5h4.8v17.1h4V20.5h3.6v17.1h4V20.5h3.6v17.1h4V20.5h52.6V45.2z"/>
</g>
</svg>
