<?xml version="1.0" encoding="utf-8"?>
<!-- Generator: Adobe Illustrator 19.2.0, SVG Export Plug-In . SVG Version: 6.00 Build 0)  -->
<svg version="1.1" id="Layer_1" xmlns="http://www.w3.org/2000/svg" xmlns:xlink="http://www.w3.org/1999/xlink" x="0px" y="0px"
	 viewBox="0 0 199.1 170" style="enable-background:new 0 0 199.1 170;" xml:space="preserve">
<style type="text/css">
	.st0{fill:#FFFFFF;}
</style>
<g>
	<path class="st0" d="M102.1,127.6l0.2-9.1l-11.8-4.4l-2.2-7.5l7.6-9.9l-4.9-7.3l-12.5,3.1l-6.4-5.2L73,75l-4.4-1.6l-4.4-1.6
		l-7.5,9.9l-8.2-0.3l-7.4-10.5l-8.4,2.4L32,85.8l-6.5,4.3l-11.8-4.4l-5.8,7.1l7,10.5l-2.2,6.5l-12.3,3.4L0,122.4l11.6,4.3l2.2,7.6
		l-7.6,9.1l5,8.1l12.3-3.1l5.7,4.4l-0.9,13l5.4,2l5.4,2l7.8-10.4l7.2,0.3l7.3,10.4l9.1-2.9l0.1-11.9l6.6-4.3l11.6,4.3l5.7-7.2
		l-7.1-10.5l2.5-6.4L102.1,127.6z M68.2,137.5l-17,7.1l-17-7.1l-7.1-17l7.1-17l17-7.1l17,7.1l7.1,17L68.2,137.5z"/>
	<path class="st0" d="M186.9,56l12.2-8.9l-3.6-10.3h-15.1l-5.5-7.5l4.5-14.3l-8.5-6.2l-12.7,8.7l-9.4-3.1L144.5,0H139h-5.6
		l-4.3,14.3l-9.4,3.1L107,8.7l-8.5,6.2l4.5,14.3l-5.5,7.5H82.4l-3.6,10.3L91,56l0.2,8.2l-12.4,8.9l3.4,10.5h14.9l5.6,7.6l-4.8,13.4
		l9,7l12.6-8.7l8.2,2.6l4.4,14.9h6.9h6.9l4.4-14.9l8.2-2.6l12.6,8.7l9-7l-4.8-13.4l5.6-7.6h14.9l3.4-10.5l-12.4-8.9L186.9,56z
		 M161.4,82.7L139,92l-22.4-9.3l-9.3-22.4l9.3-22.4l22.4-9.3l22.4,9.3l9.3,22.4L161.4,82.7z"/>
</g>
</svg>
