<?xml version="1.0" encoding="utf-8"?>
<!-- Generator: Adobe Illustrator 19.2.0, SVG Export Plug-In . SVG Version: 6.00 Build 0)  -->
<svg version="1.1" id="Layer_1" xmlns="http://www.w3.org/2000/svg" xmlns:xlink="http://www.w3.org/1999/xlink" x="0px" y="0px"
	 viewBox="0 0 119.2 119.2" style="enable-background:new 0 0 119.2 119.2;" xml:space="preserve">
<style type="text/css">
	.st0{fill:#FFFFFF;}
</style>
<path class="st0" d="M0,0v119.2h119.2V0H0z M93.5,42.8l-2.8,18.4l-10,17.1l-21,13.7L36.8,94l-19.3-7.1L32,85.1l10.8-5.7l-10.2-3.6
	l-6.1-8.6l7.7-0.3l-10.7-7.1l-3.1-10.2l7.8,2.1l-7.4-11.9l2.2-11.4l17.9,13.9L59,46.7l0.4-9.3L64,30l8-4.8l9.2,1.5l8,4l10.3-4l-7,10
	l9.1-3.1L93.5,42.8z"/>
</svg>
